<svg width="158" height="30" viewBox="0 0 158 30" fill="none" xmlns="http://www.w3.org/2000/svg">
<g clip-path="url(#clip0_227_527)">
<rect width="30" height="30" rx="3" fill="url(#paint0_linear_227_527)"/>
<rect x="-5.94512" y="-0.223905" width="29.7214" height="29.7214" rx="2.51786" transform="rotate(-15 -5.94512 -0.223905)" fill="#18181B" stroke="#1D1D22" stroke-width="0.75"/>
<path d="M-4.4945 3.07687C-4.76784 2.05676 -4.9045 1.5467 -4.81038 1.10388C-4.72758 0.714355 -4.5236 0.361043 -4.22766 0.0945794C-3.89122 -0.208349 -3.38117 -0.345019 -2.36105 -0.618357L2.34163 -1.87844C2.80532 -2.00268 3.03716 -2.0648 3.23845 -2.02202C3.4155 -1.98438 3.5761 -1.89166 3.69722 -1.75715C3.83491 -1.60422 3.89703 -1.37238 4.02128 -0.908689L10.5435 23.4326C10.6678 23.8963 10.7299 24.1282 10.6871 24.3295C10.6495 24.5065 10.5567 24.6671 10.4222 24.7882C10.2693 24.9259 10.0375 24.988 9.57377 25.1123L4.60615 26.4434C3.67877 26.6919 3.21508 26.8161 2.81251 26.7305C2.4584 26.6553 2.13721 26.4698 1.89497 26.2008C1.61958 25.8949 1.49533 25.4312 1.24684 24.5039L-4.4945 3.07687Z" fill="url(#paint1_linear_227_527)"/>
<rect x="4.08008" y="-2.3443" width="9.25715" height="27.9429" rx="0.857143" transform="rotate(-15 4.08008 -2.3443)" fill="url(#paint2_linear_227_527)"/>
<path d="M13.791 -3.5265C13.6667 -3.99019 13.6046 -4.22203 13.6474 -4.42331C13.685 -4.60037 13.7778 -4.76097 13.9123 -4.88209C14.0652 -5.01978 14.297 -5.0819 14.7607 -5.20615L19.4634 -6.46623C20.4835 -6.73957 20.9936 -6.87624 21.4364 -6.78211C21.8259 -6.69931 22.1792 -6.49533 22.4457 -6.19939C22.7486 -5.86295 22.8853 -5.3529 23.1586 -4.33278L28.9 17.0942C29.1485 18.0216 29.2727 18.4853 29.1872 18.8878C29.1119 19.242 28.9264 19.5631 28.6574 19.8054C28.3516 20.0808 27.8879 20.205 26.9605 20.4535L21.9929 21.7846C21.5292 21.9088 21.2973 21.9709 21.0961 21.9282C20.919 21.8905 20.7584 21.7978 20.6373 21.6633C20.4996 21.5104 20.4375 21.2785 20.3132 20.8148L13.791 -3.5265Z" fill="url(#paint3_linear_227_527)"/>
<path d="M1.43018 -1.6344L6.14941 -2.89892L10.3112 12.6332C10.3609 12.8186 10.3858 12.9114 10.3687 12.9919C10.3536 13.0627 10.3165 13.127 10.2627 13.1754C10.2015 13.2305 10.1088 13.2553 9.92332 13.305L6.26385 14.2856C6.07837 14.3353 5.98563 14.3601 5.90512 14.343C5.8343 14.328 5.77006 14.2909 5.72161 14.2371C5.66653 14.1759 5.64168 14.0832 5.59199 13.8977L1.43018 -1.6344Z" fill="#18181B"/>
<path d="M10.9521 -4.18561L15.6714 -5.45012L19.8332 10.082C19.8829 10.2674 19.9077 10.3602 19.8906 10.4407C19.8756 10.5115 19.8385 10.5758 19.7847 10.6242C19.7235 10.6793 19.6308 10.7041 19.4453 10.7538L15.7858 11.7344C15.6003 11.7841 15.5076 11.8089 15.4271 11.7918C15.3563 11.7768 15.292 11.7397 15.2436 11.6859C15.1885 11.6247 15.1637 11.532 15.114 11.3465L10.9521 -4.18561Z" fill="#18181B"/>
<path d="M11.0728 -4.39557L15.4608 -5.57135L19.4097 9.16592C19.5339 9.62961 19.596 9.86146 19.5532 10.0627C19.5156 10.2398 19.4229 10.4004 19.2884 10.5215C19.1354 10.6592 18.9036 10.7213 18.4399 10.8456L16.7012 11.3114C16.2376 11.4357 16.0057 11.4978 15.8044 11.455C15.6274 11.4174 15.4668 11.3247 15.3457 11.1902C15.208 11.0372 15.1458 10.8054 15.0216 10.3417L11.0728 -4.39557Z" fill="url(#paint4_linear_227_527)"/>
<path d="M1.55176 -1.84442L5.93982 -3.0202L9.88866 11.7171C10.0129 12.1808 10.075 12.4126 10.0322 12.6139C9.99461 12.7909 9.90189 12.9515 9.76737 13.0727C9.61445 13.2104 9.3826 13.2725 8.91891 13.3967L7.18024 13.8626C6.71656 13.9868 6.48471 14.049 6.28343 14.0062C6.10637 13.9685 5.94578 13.8758 5.82466 13.7413C5.68696 13.5884 5.62484 13.3565 5.5006 12.8928L1.55176 -1.84442Z" fill="url(#paint5_linear_227_527)"/>
</g>
<rect x="0.375" y="0.375" width="29.25" height="29.25" rx="2.625" stroke="#1D1D22" stroke-width="0.75"/>
<path d="M45.0825 19.8568C44.3023 19.8568 43.5667 19.7175 42.8757 19.4389C42.1958 19.1491 41.605 18.7422 41.1034 18.2184C40.613 17.6945 40.2452 17.0759 40 16.3626L42.1233 15.4096C42.4354 16.0895 42.8645 16.6245 43.4107 17.0146C43.968 17.4047 44.581 17.5998 45.2497 17.5998C45.6064 17.5998 45.9129 17.5441 46.1693 17.4326C46.4256 17.3211 46.6263 17.1707 46.7712 16.9812C46.9161 16.7806 46.9885 16.5465 46.9885 16.279C46.9885 15.9892 46.8993 15.744 46.721 15.5434C46.5427 15.3316 46.264 15.1644 45.8851 15.0418L43.4441 14.2393C42.4521 13.9161 41.7053 13.4591 41.2038 12.8683C40.7022 12.2665 40.4514 11.5475 40.4514 10.7116C40.4514 9.97597 40.6297 9.3295 40.9864 8.7722C41.3542 8.21491 41.8614 7.78022 42.5078 7.46813C43.1654 7.15604 43.9178 7 44.7649 7C45.5117 7 46.2027 7.12818 46.838 7.38454C47.4734 7.64089 48.0195 8.00313 48.4765 8.47126C48.9446 8.93939 49.2957 9.50226 49.5298 10.1599L47.4232 11.1129C47.1891 10.5333 46.838 10.0819 46.3699 9.75862C45.9018 9.42424 45.3668 9.25705 44.7649 9.25705C44.4194 9.25705 44.1129 9.31278 43.8454 9.42424C43.5778 9.5357 43.3716 9.69732 43.2268 9.90909C43.0819 10.1097 43.0094 10.3438 43.0094 10.6113C43.0094 10.9011 43.1041 11.1574 43.2936 11.3804C43.4831 11.5921 43.7673 11.7593 44.1463 11.8819L46.5371 12.651C47.5402 12.9742 48.287 13.4256 48.7774 14.0052C49.279 14.5848 49.5298 15.2926 49.5298 16.1285C49.5298 16.853 49.3403 17.4995 48.9613 18.0679C48.5824 18.6252 48.0585 19.0655 47.3898 19.3887C46.7321 19.7008 45.9631 19.8568 45.0825 19.8568Z" fill="#14181F"/>
<path d="M51.1927 23V10.5277H53.5333V12.2665L53.316 11.7649C53.6169 11.3079 54.0237 10.9568 54.5364 10.7116C55.0603 10.4552 55.6566 10.3271 56.3254 10.3271C57.1947 10.3271 57.9805 10.5388 58.6827 10.9624C59.3849 11.3859 59.9422 11.9599 60.3546 12.6844C60.767 13.3978 60.9732 14.2003 60.9732 15.092C60.9732 15.9725 60.767 16.775 60.3546 17.4995C59.9534 18.224 59.4016 18.798 58.6994 19.2215C57.9973 19.6451 57.2003 19.8568 56.3086 19.8568C55.6845 19.8568 55.1049 19.7454 54.5699 19.5225C54.046 19.2884 53.6225 18.9485 53.2992 18.5026L53.7005 17.9843V23H51.1927ZM56.0077 17.5998C56.4758 17.5998 56.8882 17.4939 57.2449 17.2821C57.6016 17.0704 57.8802 16.775 58.0809 16.396C58.2815 16.0171 58.3818 15.5824 58.3818 15.092C58.3818 14.6015 58.2815 14.1724 58.0809 13.8046C57.8802 13.4256 57.6016 13.1303 57.2449 12.9185C56.8882 12.6956 56.4758 12.5841 56.0077 12.5841C55.5619 12.5841 55.1606 12.69 54.8039 12.9018C54.4584 13.1135 54.1853 13.4089 53.9847 13.7879C53.7952 14.1668 53.7005 14.6015 53.7005 15.092C53.7005 15.5824 53.7952 16.0171 53.9847 16.396C54.1853 16.775 54.4584 17.0704 54.8039 17.2821C55.1606 17.4939 55.5619 17.5998 56.0077 17.5998Z" fill="#14181F"/>
<path d="M66.8391 19.8568C65.8694 19.8568 65.0279 19.6451 64.3145 19.2215C63.6012 18.7868 63.0495 18.2072 62.6593 17.4828C62.2692 16.7583 62.0742 15.9558 62.0742 15.0752C62.0742 14.1613 62.2748 13.3476 62.6761 12.6343C63.0885 11.9209 63.6402 11.3581 64.3312 10.9457C65.0223 10.5333 65.8025 10.3271 66.6719 10.3271C67.3964 10.3271 68.0373 10.4441 68.5946 10.6782C69.1519 10.9011 69.62 11.2187 69.999 11.6311C70.3891 12.0435 70.6844 12.5228 70.8851 13.069C71.0857 13.604 71.186 14.1891 71.186 14.8245C71.186 15.0028 71.1748 15.1811 71.1526 15.3595C71.1414 15.5266 71.1135 15.6715 71.069 15.7941H64.2309V13.9551H69.6479L68.4608 14.8245C68.5723 14.3452 68.5667 13.9216 68.4441 13.5538C68.3215 13.1749 68.1041 12.8795 67.7921 12.6677C67.4911 12.4448 67.1177 12.3333 66.6719 12.3333C66.2372 12.3333 65.8638 12.4392 65.5517 12.651C65.2396 12.8628 65.0056 13.1749 64.8495 13.5873C64.6935 13.9997 64.6322 14.5012 64.6656 15.092C64.621 15.6047 64.6823 16.0561 64.8495 16.4462C65.0167 16.8363 65.2731 17.1428 65.6186 17.3657C65.9641 17.5775 66.3821 17.6834 66.8725 17.6834C67.3184 17.6834 67.6973 17.5942 68.0094 17.4159C68.3326 17.2375 68.5834 16.9923 68.7618 16.6803L70.768 17.6332C70.5897 18.0791 70.3055 18.4692 69.9154 18.8036C69.5364 19.1379 69.085 19.3999 68.5611 19.5893C68.0373 19.7677 67.4633 19.8568 66.8391 19.8568Z" fill="#14181F"/>
<path d="M77.1434 19.8568C76.2294 19.8568 75.4046 19.6506 74.669 19.2382C73.9445 18.8147 73.3649 18.2407 72.9302 17.5162C72.5067 16.7917 72.2949 15.9781 72.2949 15.0752C72.2949 14.1724 72.5067 13.3643 72.9302 12.651C73.3538 11.9265 73.9334 11.3581 74.669 10.9457C75.4046 10.5333 76.2294 10.3271 77.1434 10.3271C77.8233 10.3271 78.4531 10.4441 79.0327 10.6782C79.6122 10.9122 80.1082 11.241 80.5206 11.6646C80.933 12.077 81.2284 12.5674 81.4067 13.1358L79.2333 14.0721C79.0772 13.6151 78.8097 13.2529 78.4308 12.9854C78.063 12.7179 77.6338 12.5841 77.1434 12.5841C76.7087 12.5841 76.3186 12.69 75.9731 12.9018C75.6387 13.1135 75.3712 13.4089 75.1706 13.7879C74.9811 14.1668 74.8864 14.6015 74.8864 15.092C74.8864 15.5824 74.9811 16.0171 75.1706 16.396C75.3712 16.775 75.6387 17.0704 75.9731 17.2821C76.3186 17.4939 76.7087 17.5998 77.1434 17.5998C77.645 17.5998 78.0797 17.466 78.4475 17.1985C78.8153 16.931 79.0772 16.5688 79.2333 16.1118L81.4067 17.0648C81.2395 17.5998 80.9498 18.0791 80.5374 18.5026C80.125 18.9262 79.629 19.2605 79.0494 19.5057C78.4698 19.7398 77.8345 19.8568 77.1434 19.8568Z" fill="#14181F"/>
<path d="M87.2806 19.7565C86.1771 19.7565 85.3189 19.4612 84.7058 18.8704C84.104 18.2685 83.803 17.4326 83.803 16.3626V12.7011H82.2649V10.5277H82.3485C82.8166 10.5277 83.1733 10.4107 83.4185 10.1766C83.6748 9.94253 83.803 9.59143 83.803 9.1233V8.45455H86.3109V10.5277H88.4509V12.7011H86.3109V16.1954C86.3109 16.5075 86.3666 16.7694 86.4781 16.9812C86.5895 17.1818 86.7623 17.3323 86.9963 17.4326C87.2304 17.5329 87.5202 17.5831 87.8657 17.5831C87.9437 17.5831 88.0329 17.5775 88.1332 17.5664C88.2335 17.5552 88.3394 17.5441 88.4509 17.5329V19.6562C88.2837 19.6785 88.0942 19.7008 87.8824 19.7231C87.6707 19.7454 87.47 19.7565 87.2806 19.7565Z" fill="#14181F"/>
<path d="M89.9205 19.6562V10.5277H92.2611V12.7179L92.0939 12.4002C92.2945 11.6311 92.6233 11.1129 93.0803 10.8454C93.5485 10.5667 94.1002 10.4274 94.7355 10.4274H95.2705V12.6008H94.4847C93.8717 12.6008 93.3757 12.7903 92.9967 13.1693C92.6178 13.5371 92.4283 14.061 92.4283 14.7409V19.6562H89.9205Z" fill="#14181F"/>
<path d="M99.1951 19.8568C98.5375 19.8568 97.9691 19.751 97.4898 19.5392C97.0105 19.3274 96.6427 19.0265 96.3864 18.6364C96.13 18.2351 96.0018 17.7614 96.0018 17.2153C96.0018 16.7025 96.1189 16.2511 96.3529 15.861C96.587 15.4598 96.9437 15.1254 97.4229 14.8579C97.9134 14.5904 98.5208 14.4009 99.2453 14.2894L102.037 13.838V15.6771L99.6967 16.0951C99.34 16.162 99.067 16.279 98.8775 16.4462C98.688 16.6022 98.5933 16.8307 98.5933 17.1317C98.5933 17.4103 98.6991 17.6277 98.9109 17.7837C99.1227 17.9397 99.3846 18.0178 99.6967 18.0178C100.109 18.0178 100.471 17.9286 100.783 17.7503C101.096 17.5719 101.335 17.3323 101.502 17.0313C101.681 16.7193 101.77 16.3793 101.77 16.0115V13.6374C101.77 13.2919 101.631 13.0021 101.352 12.768C101.084 12.534 100.717 12.4169 100.248 12.4169C99.8026 12.4169 99.4069 12.5395 99.0614 12.7847C98.727 13.03 98.4818 13.3532 98.3258 13.7544L96.3195 12.8015C96.4978 12.2887 96.782 11.8485 97.1721 11.4807C97.5623 11.1129 98.0304 10.8286 98.5765 10.628C99.1227 10.4274 99.719 10.3271 100.365 10.3271C101.135 10.3271 101.814 10.4664 102.405 10.745C102.996 11.0237 103.453 11.4138 103.776 11.9154C104.11 12.4058 104.278 12.9798 104.278 13.6374V19.6562H101.937V18.185L102.505 18.0846C102.238 18.4859 101.943 18.8203 101.619 19.0878C101.296 19.3441 100.934 19.5336 100.533 19.6562C100.131 19.79 99.6856 19.8568 99.1951 19.8568Z" fill="#14181F"/>
<path d="M110.832 19.8568C110.051 19.8568 109.316 19.7175 108.625 19.4389C107.945 19.1491 107.354 18.7422 106.853 18.2184C106.362 17.6945 105.994 17.0759 105.749 16.3626L107.872 15.4096C108.184 16.0895 108.614 16.6245 109.16 17.0146C109.717 17.4047 110.33 17.5998 110.999 17.5998C111.355 17.5998 111.662 17.5441 111.918 17.4326C112.175 17.3211 112.375 17.1707 112.52 16.9812C112.665 16.7806 112.738 16.5465 112.738 16.279C112.738 15.9892 112.648 15.744 112.47 15.5434C112.292 15.3316 112.013 15.1644 111.634 15.0418L109.193 14.2393C108.201 13.9161 107.454 13.4591 106.953 12.8683C106.451 12.2665 106.2 11.5475 106.2 10.7116C106.2 9.97597 106.379 9.3295 106.735 8.7722C107.103 8.21491 107.61 7.78022 108.257 7.46813C108.915 7.15604 109.667 7 110.514 7C111.261 7 111.952 7.12818 112.587 7.38454C113.222 7.64089 113.769 8.00313 114.226 8.47126C114.694 8.93939 115.045 9.50226 115.279 10.1599L113.172 11.1129C112.938 10.5333 112.587 10.0819 112.119 9.75862C111.651 9.42424 111.116 9.25705 110.514 9.25705C110.168 9.25705 109.862 9.31278 109.594 9.42424C109.327 9.5357 109.121 9.69732 108.976 9.90909C108.831 10.1097 108.758 10.3438 108.758 10.6113C108.758 10.9011 108.853 11.1574 109.043 11.3804C109.232 11.5921 109.516 11.7593 109.895 11.8819L112.286 12.651C113.289 12.9742 114.036 13.4256 114.527 14.0052C115.028 14.5848 115.279 15.2926 115.279 16.1285C115.279 16.853 115.089 17.4995 114.71 18.0679C114.331 18.6252 113.808 19.0655 113.139 19.3887C112.481 19.7008 111.712 19.8568 110.832 19.8568Z" fill="#14181F"/>
<path d="M121.339 19.7565C120.235 19.7565 119.377 19.4612 118.764 18.8704C118.162 18.2685 117.861 17.4326 117.861 16.3626V12.7011H116.323V10.5277H116.407C116.875 10.5277 117.232 10.4107 117.477 10.1766C117.733 9.94253 117.861 9.59143 117.861 9.1233V8.45455H120.369V10.5277H122.509V12.7011H120.369V16.1954C120.369 16.5075 120.425 16.7694 120.536 16.9812C120.648 17.1818 120.821 17.3323 121.055 17.4326C121.289 17.5329 121.578 17.5831 121.924 17.5831C122.002 17.5831 122.091 17.5775 122.191 17.5664C122.292 17.5552 122.398 17.5441 122.509 17.5329V19.6562C122.342 19.6785 122.152 19.7008 121.941 19.7231C121.729 19.7454 121.528 19.7565 121.339 19.7565Z" fill="#14181F"/>
<path d="M128.376 19.8568C127.406 19.8568 126.565 19.6451 125.851 19.2215C125.138 18.7868 124.586 18.2072 124.196 17.4828C123.806 16.7583 123.611 15.9558 123.611 15.0752C123.611 14.1613 123.812 13.3476 124.213 12.6343C124.625 11.9209 125.177 11.3581 125.868 10.9457C126.559 10.5333 127.339 10.3271 128.209 10.3271C128.933 10.3271 129.574 10.4441 130.131 10.6782C130.689 10.9011 131.157 11.2187 131.536 11.6311C131.926 12.0435 132.221 12.5228 132.422 13.069C132.622 13.604 132.723 14.1891 132.723 14.8245C132.723 15.0028 132.712 15.1811 132.689 15.3595C132.678 15.5266 132.65 15.6715 132.606 15.7941H125.768V13.9551H131.185L129.998 14.8245C130.109 14.3452 130.103 13.9216 129.981 13.5538C129.858 13.1749 129.641 12.8795 129.329 12.6677C129.028 12.4448 128.654 12.3333 128.209 12.3333C127.774 12.3333 127.401 12.4392 127.088 12.651C126.776 12.8628 126.542 13.1749 126.386 13.5873C126.23 13.9997 126.169 14.5012 126.202 15.092C126.158 15.6047 126.219 16.0561 126.386 16.4462C126.553 16.8363 126.81 17.1428 127.155 17.3657C127.501 17.5775 127.919 17.6834 128.409 17.6834C128.855 17.6834 129.234 17.5942 129.546 17.4159C129.869 17.2375 130.12 16.9923 130.298 16.6803L132.305 17.6332C132.126 18.0791 131.842 18.4692 131.452 18.8036C131.073 19.1379 130.622 19.3999 130.098 19.5893C129.574 19.7677 129 19.8568 128.376 19.8568Z" fill="#14181F"/>
<path d="M134.199 19.6562V10.5277H136.54V12.7513L136.289 12.3835C136.423 11.6813 136.746 11.163 137.259 10.8286C137.772 10.4943 138.385 10.3271 139.098 10.3271C139.856 10.3271 140.519 10.5221 141.088 10.9122C141.667 11.2912 142.029 11.8039 142.174 12.4504L141.455 12.5172C141.756 11.7705 142.186 11.2187 142.743 10.8621C143.3 10.5054 143.952 10.3271 144.699 10.3271C145.357 10.3271 145.936 10.472 146.438 10.7618C146.95 11.0515 147.352 11.4584 147.641 11.9822C147.931 12.4949 148.076 13.0968 148.076 13.7879V19.6562H145.568V14.3229C145.568 13.9662 145.501 13.6597 145.368 13.4033C145.245 13.147 145.067 12.9464 144.833 12.8015C144.599 12.6566 144.314 12.5841 143.98 12.5841C143.657 12.5841 143.373 12.6566 143.127 12.8015C142.893 12.9464 142.709 13.147 142.576 13.4033C142.453 13.6597 142.392 13.9662 142.392 14.3229V19.6562H139.884V14.3229C139.884 13.9662 139.817 13.6597 139.683 13.4033C139.561 13.147 139.382 12.9464 139.148 12.8015C138.914 12.6566 138.63 12.5841 138.296 12.5841C137.972 12.5841 137.688 12.6566 137.443 12.8015C137.209 12.9464 137.025 13.147 136.891 13.4033C136.769 13.6597 136.707 13.9662 136.707 14.3229V19.6562H134.199Z" fill="#14181F"/>
<defs>
<linearGradient id="paint0_linear_227_527" x1="15" y1="0" x2="15" y2="30" gradientUnits="userSpaceOnUse">
<stop stop-color="#D5CEEB"/>
<stop offset="1" stop-color="#696599"/>
</linearGradient>
<linearGradient id="paint1_linear_227_527" x1="-0.804531" y1="-1.03543" x2="6.42761" y2="25.9553" gradientUnits="userSpaceOnUse">
<stop stop-color="#444254"/>
<stop offset="0.248" stop-color="#5F6577"/>
<stop offset="0.568" stop-color="#E7EEFF"/>
</linearGradient>
<linearGradient id="paint2_linear_227_527" x1="8.70865" y1="-2.3443" x2="8.70865" y2="25.5986" gradientUnits="userSpaceOnUse">
<stop stop-color="#444254"/>
<stop offset="0.248" stop-color="#5F6577"/>
<stop offset="0.568" stop-color="#E7EEFF"/>
</linearGradient>
<linearGradient id="paint3_linear_227_527" x1="17.9069" y1="-6.04916" x2="25.139" y2="20.9416" gradientUnits="userSpaceOnUse">
<stop stop-color="#444254"/>
<stop offset="0.248" stop-color="#5F6577"/>
<stop offset="0.568" stop-color="#E7EEFF"/>
</linearGradient>
<linearGradient id="paint4_linear_227_527" x1="13.2668" y1="-4.98346" x2="17.5706" y2="11.0785" gradientUnits="userSpaceOnUse">
<stop offset="0.57" stop-color="#1D1E22"/>
<stop offset="1" stop-color="#8B89A4"/>
</linearGradient>
<linearGradient id="paint5_linear_227_527" x1="3.74579" y1="-2.43231" x2="8.04958" y2="13.6297" gradientUnits="userSpaceOnUse">
<stop offset="0.57" stop-color="#1D1E22"/>
<stop offset="1" stop-color="#8B89A4"/>
</linearGradient>
<clipPath id="clip0_227_527">
<rect width="30" height="30" rx="3" fill="white"/>
</clipPath>
</defs>
</svg>
